<svg width="24" height="24" viewBox="0 0 24 24" fill="none" xmlns="http://www.w3.org/2000/svg">
<path d="M18.0791 4.37012L17.4561 4.2627H17.4541C17.4531 4.26253 17.4518 4.262 17.4502 4.26172C17.4469 4.26117 17.4423 4.26073 17.4365 4.25977C17.4249 4.25782 17.4081 4.25539 17.3867 4.25195C17.3439 4.24506 17.2818 4.23515 17.2041 4.22363C17.0489 4.20063 16.8291 4.17009 16.5674 4.13965C16.0465 4.07908 15.345 4.01662 14.6504 4.0166C13.1306 4.0166 11.792 4.4834 10.833 5.44922C9.87381 6.41532 9.37988 7.79422 9.37988 9.45117V11.3545H6.34082V16.335H9.37988V23.083C4.43646 21.8918 0.750139 17.417 0.75 12.0732C0.75 5.81588 5.79149 0.75 12 0.75C18.2085 0.75 23.25 5.81492 23.25 12.0732C23.2499 17.4182 19.5641 21.8936 14.6201 23.084V16.3359H17.3037L17.4004 15.6992L17.9316 12.2178L18.0635 11.3555H14.6201V9.84668C14.6201 9.47844 14.7111 9.20726 14.8564 9.03809C14.9838 8.88994 15.2416 8.71582 15.8203 8.71582H18.0791V4.37012Z" stroke="white" stroke-width="1.5"/>
</svg>
